<?xml version="1.0" encoding="UTF-8"?><svg id="Calque_1" xmlns="http://www.w3.org/2000/svg" viewBox="0 0 1920 1080"><defs><style>.cls-1{fill:#8afd81;}</style></defs><path d="M751.54,546.07v47.4h79.38l-7.37,16.27h-100.36v-142.3h119.04l-9.44,15.7h-81.25v47.4h42.97l-7.57,15.52h-35.4Z"/><path d="M1227.2,473.06h135.1l-19.18,18.8h-34v117.87h-28.74v-117.87h-34.87l-18.3-18.8Z"/><path d="M1040.55,531.58h19.2c11.91,0,21.59-9.38,21.59-20.9s-9.69-20.9-21.59-20.9h-41.84v119.96h-28.74v-142.3h70.58c24.68,0,44.68,19.36,44.68,43.24s-18.03,41.25-40.96,43.08l58.82,56.92h-30.63l-51.1-46.49v-32.62h-.01Z"/><path d="M918.66,467.44h-21.35l-57.68,142.3h28.96l39.4-97.12,39.4,97.12h28.95l-57.68-142.3Z"/><path d="M1226,549.09c-3.2-3.09-7.2-6.08-12.02-8.99-4.82-2.9-9.26-5.2-13.29-6.91-4.04-1.7-8.54-3.44-13.49-5.2-2.22-.75-4.83-1.63-7.82-2.65-5.74-2.01-10.07-3.59-13-4.73-2.94-1.14-5.9-2.49-8.9-4.07-3-1.58-5.19-3.22-6.55-4.93-1.36-1.7-2.31-3.75-2.84-6.15-.13-1.14-.19-2.43-.19-3.88s.4-3.15,1.17-5.11c.78-1.95,1.82-3.75,3.12-5.39,4.95-5.93,13.1-8.89,24.45-8.89s20.29,3.6,28.15,10.77h26.23c-11.77-16.75-30.02-25.15-54.77-25.15-7.17,0-13.78.83-19.84,2.46-6.06,1.64-11.15,3.82-15.26,6.53-4.1,2.72-7.63,5.83-10.56,9.36-2.93,3.53-5.06,7.07-6.36,10.59-1.3,3.53-1.95,6.94-1.95,10.22s.35,6.34,1.08,9.18c.71,2.84,1.89,5.46,3.52,7.86,1.63,2.4,3.23,4.54,4.79,6.43,1.57,1.89,3.74,3.73,6.55,5.49,2.8,1.77,5.18,3.22,7.13,4.35,1.96,1.14,4.66,2.43,8.12,3.88,3.45,1.46,6.16,2.52,8.12,3.22,1.95.69,4.69,1.67,8.22,2.93l5.66,1.89c5.61,1.89,9.9,3.44,12.91,4.64,2.99,1.2,6.19,2.59,9.57,4.16,3.39,1.58,5.9,3.06,7.53,4.45,1.64,1.39,2.97,2.99,4.01,4.82,1.05,1.83,1.57,3.88,1.57,6.15,0,6.43-2.81,11.57-8.41,15.43-5.6,3.85-11.99,5.77-19.16,5.77-16.86,0-28.35-4.71-34.52-14.08h-23.12c3.35,8.56,9.04,15.36,17.07,20.42,9.71,6.12,22,9.18,36.86,9.18,7.04,0,13.82-.69,20.33-2.09,6.52-1.38,12.64-3.53,18.38-6.43,5.73-2.9,10.3-6.97,13.69-12.2,3.39-5.23,5.09-11.26,5.09-18.07,0-4.92-1.08-9.58-3.22-14-2.16-4.42-4.83-8.17-8.01-11.25h-.04Z"/><polygon class="cls-1" points="601.74 466.87 572.6 466.87 572.6 609.73 601.74 609.73 601.74 549.07 633.11 579.43 665.76 579.43 601.74 517.46 601.74 466.87"/><polygon class="cls-1" points="672.72 466.87 672.72 528.12 644.63 500.93 611.98 500.93 672.72 559.72 672.72 609.73 701.86 609.73 701.86 466.87 672.72 466.87"/></svg>